HIERARCHY
ROOT pelvis
{
  OFFSET 0 100 0
  CHANNELS 6 Xposition Yposition Zposition Zrotation Xrotation Yrotation
  JOINT pelvis_right_femur
  {
    OFFSET -10.78128 -3.44521 -0.5502486
    CHANNELS 3 Zrotation Xrotation Yrotation
    JOINT right_femur_tibia
    {
      OFFSET -0.8047443 -44.0398 -0.1307829
      CHANNELS 3 Zrotation Xrotation Yrotation
      JOINT right_tibia_foot
      {
        OFFSET 3.006224 -47.83518 -5
        CHANNELS 3 Zrotation Xrotation Yrotation
        End Site
        {
          OFFSET 0 -5 15
        }
      }
    }
  }
  JOINT pelvis_left_femur
  {
    OFFSET 10.78128 -3.44521 -0.5502486
    CHANNELS 3 Zrotation Xrotation Yrotation
    JOINT left_femur_tibia
    {
      OFFSET 0.8047443 -44.0398 -0.1307829
      CHANNELS 3 Zrotation Xrotation Yrotation
      JOINT left_tibia_foot
      {
        OFFSET -4.370144 -48.10324 -4.275266
        CHANNELS 3 Zrotation Xrotation Yrotation
        End Site
        {
          OFFSET 0 -5 15
        }
      }
    }
  }
  JOINT pelvis_spine1
  {
    OFFSET 0 6.468898 -3.129235
    CHANNELS 3 Zrotation Xrotation Yrotation
    JOINT spine1
    {
      OFFSET 0 23.15396 4.99043
      CHANNELS 3 Zrotation Xrotation Yrotation
      JOINT spine2
      {
        OFFSET 0 20.79997 -5.064912
        CHANNELS 3 Zrotation Xrotation Yrotation
        JOINT neck
        {
          OFFSET 0 14.38658 9.616178
          CHANNELS 3 Zrotation Xrotation Yrotation
          End Site
          {
            OFFSET 0 20 0
          }
        }
      }
      JOINT right_manubrium
      {
        OFFSET -5.722621 16.35077 3.967754
        CHANNELS 3 Zrotation Xrotation Yrotation
        JOINT right_clavicle
        {
          OFFSET -13.16364 1.694482 -4.693211
          CHANNELS 3 Zrotation Xrotation Yrotation
          JOINT right_humerus
          {
            OFFSET -28.5034 -0.3100689 -2.792744
            CHANNELS 3 Zrotation Xrotation Yrotation
            JOINT right_radius
            {
              OFFSET -25.15693 0.02248979 -1.271978
              CHANNELS 3 Zrotation Xrotation Yrotation
              End Site
              {
                OFFSET -15 0 0
              }
            }
          }
        }
      }
      JOINT left_manubrium
      {
        OFFSET 5.722621 16.35077 3.967754
        CHANNELS 3 Zrotation Xrotation Yrotation
        JOINT left_clavicle
        {
          OFFSET 13.16364 1.694482 -4.693211
          CHANNELS 3 Zrotation Xrotation Yrotation
          JOINT left_humerus
          {
            OFFSET 29.39168 -1.063119 -2.237045
            CHANNELS 3 Zrotation Xrotation Yrotation
            JOINT left_radius
            {
              OFFSET 24.59957 -0.9528479 0.9047498
              CHANNELS 3 Zrotation Xrotation Yrotation
              End Site
              {
                OFFSET 15 -0 -0
              }
            }
          }
        }
      }
    }
  }
}
MOTION
Frames: 15
Frame Time: 0.0416666666667
-17.38799 102.9488 54.94081 -0.6786139 -10.29521 2.215753 5.968359 18.93393 3.301304 -0 20.30144 -0 -10.09681 -17.97607 -4.428945 4.92405 -20.04575 -3.152991 -0 15.633 -0 3.584786 0.9317881 16.41473 1.313531 -4.41836 8.203464 0.1394103 16.59438 -5.757354 1.166492 18.92272 1.826866 0.3093138 -17.31026 4.078838 -1.102596 -31.88672 12.68096 87.50809 16.10916 -8.249429 -0 0 32.54919 -21.74249 19.38975 14.63786 1.08962 -21.89403 -8.285881 -98.05797 11.93483 41.48443 0 0 -4.601472 2.667166 15.03 10.49003
-16.11396 102.9499 59.91564 -0.8118444 -10.28567 1.46995 5.968359 18.93393 3.301304 -0 20.30144 -0 -10.09681 -17.97607 -4.428945 4.92405 -20.04575 -3.152991 -0 15.633 -0 3.584786 0.9317881 16.41473 1.313531 -4.41836 8.203464 0.1394103 16.59438 -5.757354 1.166492 18.92272 1.826866 0.3093138 -17.31026 4.078838 -1.102596 -31.88672 12.68096 87.50809 16.10916 -8.249429 -0 0 32.54919 -21.74249 19.38975 14.63786 1.08962 -21.89403 -8.285881 -98.05797 11.93483 41.48443 0 0 -4.601472 2.667166 15.03 10.49003
-14.90374 102.9511 64.90639 -0.9449331 -10.27442 0.7241967 5.968359 18.93393 3.301304 -0 20.30144 -0 -10.09681 -17.97607 -4.428945 4.92405 -20.04575 -3.152991 -0 15.633 -0 3.584786 0.9317881 16.41473 1.313531 -4.41836 8.203464 0.1394103 16.59438 -5.757354 1.166492 18.92272 1.826866 0.3093138 -17.31026 4.078838 -1.102596 -31.88672 12.68096 87.50809 16.10916 -8.249429 -0 0 32.54919 -21.74249 19.38975 14.63786 1.08962 -21.89403 -8.285881 -98.05797 11.93483 41.48443 0 0 -4.601472 2.667166 15.03 10.49003
-13.75755 102.9522 69.91222 -1.077857 -10.26146 -0.0215 5.968359 18.93393 3.301304 -0 20.30144 -0 -10.09681 -17.97607 -4.428945 4.92405 -20.04575 -3.152991 -0 15.633 -0 3.584786 0.9317881 16.41473 1.313531 -4.41836 8.203464 0.1394103 16.59438 -5.757354 1.166492 18.92272 1.826866 0.3093138 -17.31026 4.078838 -1.102596 -31.88672 12.68096 87.50809 16.10916 -8.249429 -0 0 32.54919 -21.74249 19.38975 14.63786 1.08962 -21.89403 -8.285881 -98.05797 11.93483 41.48443 0 0 -4.601472 2.667166 15.03 10.49003
-12.67557 102.9533 74.93232 -1.210592 -10.24681 -0.7671316 5.968359 18.93393 3.301304 -0 20.30144 -0 -10.09681 -17.97607 -4.428945 4.92405 -20.04575 -3.152991 -0 15.633 -0 3.584786 0.9317881 16.41473 1.313531 -4.41836 8.203464 0.1394103 16.59438 -5.757354 1.166492 18.92272 1.826866 0.3093138 -17.31026 4.078838 -1.102596 -31.88672 12.68096 87.50809 16.10916 -8.249429 -0 0 32.54919 -21.74249 19.38975 14.63786 1.08962 -21.89403 -8.285881 -98.05797 11.93483 41.48443 0 0 -4.601472 2.667166 15.03 10.49003
-11.65797 102.9544 79.96587 -1.343115 -10.23045 -1.51269 5.968359 18.93393 3.301304 -0 20.30144 -0 -10.09681 -17.97607 -4.428945 4.92405 -20.04575 -3.152991 -0 15.633 -0 3.584786 0.9317881 16.41473 1.313531 -4.41836 8.203464 0.1394103 16.59438 -5.757354 1.166492 18.92272 1.826866 0.3093138 -17.31026 4.078838 -1.102596 -31.88672 12.68096 87.50809 16.10916 -8.249429 -0 0 32.54919 -21.74249 19.38975 14.63786 1.08962 -21.89403 -8.285881 -98.05797 11.93483 41.48443 0 0 -4.601472 2.667166 15.03 10.49003
-10.70493 102.9556 85.01204 -1.475404 -10.2124 -2.258168 5.968359 18.93393 3.301304 -0 20.30144 -0 -10.09681 -17.97607 -4.428945 4.92405 -20.04575 -3.152991 -0 15.633 -0 3.584786 0.9317881 16.41473 1.313531 -4.41836 8.203464 0.1394103 16.59438 -5.757354 1.166492 18.92272 1.826866 0.3093138 -17.31026 4.078838 -1.102596 -31.88672 12.68096 87.50809 16.10916 -8.249429 -0 0 32.54919 -21.74249 19.38975 14.63786 1.08962 -21.89403 -8.285881 -98.05797 11.93483 41.48443 0 0 -4.601472 2.667166 15.03 10.49003
-9.816595 102.9567 90.07 -1.607435 -10.19266 -3.003558 5.968359 18.93393 3.301304 -0 20.30144 -0 -10.09681 -17.97607 -4.428945 4.92405 -20.04575 -3.152991 -0 15.633 -0 3.584786 0.9317881 16.41473 1.313531 -4.41836 8.203464 0.1394103 16.59438 -5.757354 1.166492 18.92272 1.826866 0.3093138 -17.31026 4.078838 -1.102596 -31.88672 12.68096 87.50809 16.10916 -8.249429 -0 0 32.54919 -21.74249 19.38975 14.63786 1.08962 -21.89403 -8.285881 -98.05797 11.93483 41.48443 0 0 -4.601472 2.667166 15.03 10.49003
-8.993118 102.9578 95.13893 -1.739186 -10.17123 -3.748851 5.968359 18.93393 3.301304 -0 20.30144 -0 -10.09681 -17.97607 -4.428945 4.92405 -20.04575 -3.152991 -0 15.633 -0 3.584786 0.9317881 16.41473 1.313531 -4.41836 8.203464 0.1394103 16.59438 -5.757354 1.166492 18.92272 1.826866 0.3093138 -17.31026 4.078838 -1.102596 -31.88672 12.68096 87.50809 16.10916 -8.249429 -0 0 32.54919 -21.74249 19.38975 14.63786 1.08962 -21.89403 -8.285881 -98.05797 11.93483 41.48443 0 0 -4.601472 2.667166 15.03 10.49003
-8.234631 102.9589 100.218 -1.870633 -10.14812 -4.49404 5.968359 18.93393 3.301304 -0 20.30144 -0 -10.09681 -17.97607 -4.428945 4.92405 -20.04575 -3.152991 -0 15.633 -0 3.584786 0.9317881 16.41473 1.313531 -4.41836 8.203464 0.1394103 16.59438 -5.757354 1.166492 18.92272 1.826866 0.3093138 -17.31026 4.078838 -1.102596 -31.88672 12.68096 87.50809 16.10916 -8.249429 -0 0 32.54919 -21.74249 19.38975 14.63786 1.08962 -21.89403 -8.285881 -98.05797 11.93483 41.48443 0 0 -4.601472 2.667166 15.03 10.49003
-7.54126 102.9601 105.3063 -2.001754 -10.12332 -5.239117 5.968359 18.93393 3.301304 -0 20.30144 -0 -10.09681 -17.97607 -4.428945 4.92405 -20.04575 -3.152991 -0 15.633 -0 3.584786 0.9317881 16.41473 1.313531 -4.41836 8.203464 0.1394103 16.59438 -5.757354 1.166492 18.92272 1.826866 0.3093138 -17.31026 4.078838 -1.102596 -31.88672 12.68096 87.50809 16.10916 -8.249429 -0 0 32.54919 -21.74249 19.38975 14.63786 1.08962 -21.89403 -8.285881 -98.05797 11.93483 41.48443 0 0 -4.601472 2.667166 15.03 10.49003
-6.913117 102.9612 110.4032 -2.132526 -10.09685 -5.984076 5.968359 18.93393 3.301304 -0 20.30144 -0 -10.09681 -17.97607 -4.428945 4.92405 -20.04575 -3.152991 -0 15.633 -0 3.584786 0.9317881 16.41473 1.313531 -4.41836 8.203464 0.1394103 16.59438 -5.757354 1.166492 18.92272 1.826866 0.3093138 -17.31026 4.078838 -1.102596 -31.88672 12.68096 87.50809 16.10916 -8.249429 -0 0 32.54919 -21.74249 19.38975 14.63786 1.08962 -21.89403 -8.285881 -98.05797 11.93483 41.48443 0 0 -4.601472 2.667166 15.03 10.49003
-6.350306 102.9623 115.5076 -2.262926 -10.06871 -6.728908 5.968359 18.93393 3.301304 -0 20.30144 -0 -10.09681 -17.97607 -4.428945 4.92405 -20.04575 -3.152991 -0 15.633 -0 3.584786 0.9317881 16.41473 1.313531 -4.41836 8.203464 0.1394103 16.59438 -5.757354 1.166492 18.92272 1.826866 0.3093138 -17.31026 4.078838 -1.102596 -31.88672 12.68096 87.50809 16.10916 -8.249429 -0 0 32.54919 -21.74249 19.38975 14.63786 1.08962 -21.89403 -8.285881 -98.05797 11.93483 41.48443 0 0 -4.601472 2.667166 15.03 10.49003
-5.85292 102.9635 120.6188 -2.392932 -10.0389 -7.473606 5.968359 18.93393 3.301304 -0 20.30144 -0 -10.09681 -17.97607 -4.428945 4.92405 -20.04575 -3.152991 -0 15.633 -0 3.584786 0.9317881 16.41473 1.313531 -4.41836 8.203464 0.1394103 16.59438 -5.757354 1.166492 18.92272 1.826866 0.3093138 -17.31026 4.078838 -1.102596 -31.88672 12.68096 87.50809 16.10916 -8.249429 -0 0 32.54919 -21.74249 19.38975 14.63786 1.08962 -21.89403 -8.285881 -98.05797 11.93483 41.48443 0 0 -4.601472 2.667166 15.03 10.49003
-5.421039 102.9646 125.736 -2.522521 -10.00743 -8.218164 5.968359 18.93393 3.301304 -0 20.30144 -0 -10.09681 -17.97607 -4.428945 4.92405 -20.04575 -3.152991 -0 15.633 -0 3.584786 0.9317881 16.41473 1.313531 -4.41836 8.203464 0.1394103 16.59438 -5.757354 1.166492 18.92272 1.826866 0.3093138 -17.31026 4.078838 -1.102596 -31.88672 12.68096 87.50809 16.10916 -8.249429 -0 0 32.54919 -21.74249 19.38975 14.63786 1.08962 -21.89403 -8.285881 -98.05797 11.93483 41.48443 0 0 -4.601472 2.667166 15.03 10.49003
